# File created by Blade
# Date/Time:  Tue Jan 27 17:09:01 2015
#---------------------------------------------------------
:version 1.10
:name HOM
:units
  mass 1.0
  length 1.000000
  angle deg
:documentation
     Acclaim Skeleton File
:root
   axis xyz
   order TX TY TZ RX RY RZ
   position 0.000000 0.000000 0.000000
   orientation 0 0 0
:bonedata
   begin
      id 1
      name Spine_dum
      direction 0.000000 1.000000 0.000000
      length 7.539951
      axis 0.0 0.0 0.0 xyz
   end
   begin
      id 2
      name LeftUpLeg_dum
      direction 1.000000 0.000000 0.000000
      length 3.345476
      axis 0.0 0.0 0.0 xyz
   end
   begin
      id 3
      name RightUpLeg_dum
      direction -1.000000 0.000000 0.000000
      length 3.345476
      axis 0.0 0.0 0.0 xyz
   end
   begin
      id 4
      name Spine
      direction 0.000000 1.000000 0.000000
      length 0.000000
      axis 0.0 0.0 0.0 xyz
      dof rx ry rz
   end
   begin
      id 5
      name Spine_dum1
      direction 0.000000 1.000000 0.000000
      length 15.093809
      axis 0.0 0.0 0.0 xyz
   end
   begin
      id 6
      name Spine_dum2
      direction 0.000000 1.000000 0.000000
      length 9.738928
      axis 0.0 0.0 0.0 xyz
   end
   begin
      id 7
      name Spine_dum3
      direction 0.000000 1.000000 0.000000
      length 9.738928
      axis 0.0 0.0 0.0 xyz
   end
   begin
      id 8
      name Head
      direction 0.000000 1.000000 0.000000
      length 4.527550
      axis 0.0 0.0 0.0 xyz
      dof rx ry rz
   end
   begin
      id 9
      name LeftShoulder
      direction 1.000000 0.000000 0.000000
      length 7.084015
      axis 0.0 0.0 -90.0 xyz
      dof rx ry rz
   end
   begin
      id 10
      name LeftArm
      direction 1.000000 0.000000 0.000000
      length 10.259319
      axis 0.0 0.0 -90.0 xyz
      dof rx ry rz
   end
   begin
      id 11
      name LeftForeArm
      direction 1.000000 0.000000 0.000000
      length 9.896984
      axis 0.0 0.0 -90.0 xyz
      dof ry rz rx
   end
   begin
      id 12
      name LeftHand
      direction 0.000000 0.000000 0.000000
      length 0.000000
      axis 0.0 0.0 -90.0 xyz
      dof rx ry rz
   end
   begin
      id 13
      name LeftHand_dum1
      direction 0.000000 0.000000 0.000000
      length 0.000000
      axis 0.0 0.0 -90.0 xyz
   end
   begin
      id 14
      name LeftHand_dum2
      direction 1.000000 0.000000 0.000000
      length 3.937000
      axis 0.0 0.0 -90.0 xyz
   end
   begin
      id 15
      name LeftHandThumb1
      direction 0.000000 0.000000 1.000000
      length 3.937000
      axis 0.0 0.0 -90.0 xyz
      dof rx rz ry
   end
   begin
      id 16
      name RightShoulder
      direction -1.000000 0.000000 0.000000
      length 7.084015
      axis 0.0 0.0 90.0 xyz
      dof rx ry rz
   end
   begin
      id 17
      name RightArm
      direction -1.000000 0.000000 0.000000
      length 10.259319
      axis 0.0 0.0 90.0 xyz
      dof rx ry rz
   end
   begin
      id 18
      name RightForeArm
      direction -1.000000 0.000000 0.000000
      length 9.896984
      axis 0.0 0.0 90.0 xyz
      dof ry rz rx
   end
   begin
      id 19
      name RightHand
      direction 0.000000 0.000000 0.000000
      length 0.000000
      axis 0.0 0.0 90.0 xyz
      dof rx ry rz
   end
   begin
      id 20
      name RightHand_dum1
      direction 0.000000 0.000000 0.000000
      length 0.000000
      axis 0.0 0.0 90.0 xyz
   end
   begin
      id 21
      name RightHand_dum2
      direction -1.000000 0.000000 0.000000
      length 3.937000
      axis 0.0 0.0 90.0 xyz
   end
   begin
      id 22
      name RightHandThumb1
      direction 0.000000 0.000000 1.000000
      length 3.937000
      axis 0.0 0.0 90.0 xyz
      dof rx rz ry
   end
   begin
      id 23
      name LeftUpLeg
      direction 0.000000 -1.000000 0.000000
      length 19.114733
      axis 0.0 0.0 0.0 xyz
      dof rx ry rz
   end
   begin
      id 24
      name LeftLeg
      direction 0.000000 -1.000000 0.000000
      length 16.045604
      axis 0.0 0.0 0.0 xyz
      dof rx ry rz
   end
   begin
      id 25
      name LeftFoot
      direction 0.000000 -0.258819 0.965926
      length 5.543155
      axis 15.0 0.0 0.0 xyz
      dof rx ry rz
   end
   begin
      id 26
      name LeftToeBase
      direction 0.000000 0.000000 1.000000
      length 2.952750
      axis 0.0 0.0 0.0 xyz
      dof rx ry rz
   end
   begin
      id 27
      name RightUpLeg
      direction 0.000000 -1.000000 0.000000
      length 19.114733
      axis 0.0 0.0 0.0 xyz
      dof rx ry rz
   end
   begin
      id 28
      name RightLeg
      direction 0.000000 -1.000000 0.000000
      length 16.045604
      axis 0.0 0.0 0.0 xyz
      dof rx ry rz
   end
   begin
      id 29
      name RightFoot
      direction 0.000000 -0.258819 0.965926
      length 5.543155
      axis 15.0 0.0 0.0 xyz
      dof rx ry rz
   end
   begin
      id 30
      name RightToeBase
      direction 0.000000 0.000000 1.000000
      length 2.952750
      axis 0.0 0.0 0.0 xyz
      dof rx ry rz
   end
:hierarchy
   begin
      root Spine_dum LeftUpLeg_dum RightUpLeg_dum
      Spine_dum Spine
      LeftUpLeg_dum LeftUpLeg
      RightUpLeg_dum RightUpLeg
      Spine Spine_dum1 Spine_dum2 Spine_dum3
      Spine_dum1 Head
      Spine_dum2 LeftShoulder
      Spine_dum3 RightShoulder
      LeftShoulder LeftArm
      LeftArm LeftForeArm
      LeftForeArm LeftHand
      LeftHand LeftHand_dum1 LeftHand_dum2
      LeftHand_dum1 LeftHandThumb1
      RightShoulder RightArm
      RightArm RightForeArm
      RightForeArm RightHand
      RightHand RightHand_dum1 RightHand_dum2
      RightHand_dum1 RightHandThumb1
      LeftUpLeg LeftLeg
      LeftLeg LeftFoot
      LeftFoot LeftToeBase
      RightUpLeg RightLeg
      RightLeg RightFoot
      RightFoot RightToeBase
   end

# File created by Blade
# Date/Time:  Tue Jan 27 17:08:52 2015
# Frame Rate: 120.000 fps
#------------------------------------------------------
:FULLY-SPECIFIED
:DEGREES
2294
root 0.034308 36.641035 -0.569531 0.482492 -17.631366 -12.244146
Spine 10.802719 10.819937 14.526680
Head -4.958004 -14.339249 -1.019777
LeftShoulder -6.851523 -5.178477 1.874126
LeftArm -15.332911 -24.947461 -45.843728
LeftForeArm 14.998574 -0.000000 122.096784
LeftHand -20.386740 -0.000000 30.703570
LeftHandThumb1 -26.253704 0.000000 33.147579
RightShoulder -0.577448 -21.792101 -3.319656
RightArm 9.798113 -0.522186 67.289587
RightForeArm 204.215405 -0.000000 36.045667
RightHand 1.069932 -0.000000 8.690035
RightHandThumb1 -24.326973 -0.000000 -32.862282
LeftUpLeg -10.153671 15.617653 5.778035
LeftLeg 28.906351 -0.000000 -0.000000
LeftFoot -26.489704 18.713858 -5.568031
LeftToeBase 12.919299 -0.000000 -0.000000
RightUpLeg -76.684279 -25.039644 11.313725
RightLeg 110.859400 -0.000000 -0.000000
RightFoot 2.083728 -7.506372 7.826403
RightToeBase 6.278035 -0.000000 -0.000000
2295
root 0.041742 36.639545 -0.573591 0.501732 -17.615288 -12.155082
Spine 10.774321 10.838908 14.509166
Head -5.032735 -14.278789 -1.023091
LeftShoulder -6.870531 -5.190683 1.880102
LeftArm -15.326854 -24.887314 -45.911652
LeftForeArm 15.003858 -0.000000 122.039602
LeftHand -20.308089 -0.000000 30.808145
LeftHandThumb1 -26.253704 0.000000 33.147579
RightShoulder -0.591009 -21.792124 -3.325552
RightArm 9.861346 -0.576161 67.272119
RightForeArm 204.083416 -0.000000 36.039136
RightHand 1.052782 -0.000000 8.666136
RightHandThumb1 -24.326973 -0.000000 -32.862282
LeftUpLeg -10.186749 15.659471 5.672732
LeftLeg 28.851159 -0.000000 -0.000000
LeftFoot -26.460968 18.676396 -5.521735
LeftToeBase 12.920651 -0.000000 -0.000000
RightUpLeg -76.526257 -25.036938 11.203848
RightLeg 111.740668 -0.000000 -0.000000
RightFoot 2.542826 -7.127120 7.861826
RightToeBase 6.190315 -0.000000 -0.000000
2296
root 0.050760 36.637525 -0.577359 0.513843 -17.598277 -12.033736
Spine 10.735707 10.884430 14.450420
Head -5.078660 -14.278123 -1.093988
LeftShoulder -6.851618 -5.187759 1.905998
LeftArm -15.334985 -24.846072 -45.990394
LeftForeArm 15.004300 -0.000000 121.976487
LeftHand -20.153719 -0.000000 30.870639
LeftHandThumb1 -26.253704 0.000000 33.147579
RightShoulder -0.615758 -21.799623 -3.307911
RightArm 9.904656 -0.600653 67.258113
RightForeArm 203.964758 -0.000000 36.061052
RightHand 1.088918 -0.000000 8.622530
RightHandThumb1 -24.326973 -0.000000 -32.862282
LeftUpLeg -10.222455 15.690010 5.532854
LeftLeg 28.795778 -0.000000 -0.000000
LeftFoot -26.434219 18.639960 -5.521028
LeftToeBase 12.921982 -0.000000 -0.000000
RightUpLeg -76.383992 -25.028480 11.065560
RightLeg 112.563626 -0.000000 -0.000000
RightFoot 3.076708 -6.829937 7.749757
RightToeBase 6.320422 -0.000000 -0.000000
2297
root 0.059205 36.635470 -0.580730 0.529217 -17.579158 -11.932186
Spine 10.701540 10.898009 14.415382
Head -5.131775 -14.246972 -1.111952
LeftShoulder -6.858549 -5.190787 1.906462
LeftArm -15.326778 -24.800060 -46.041496
LeftForeArm 15.009955 -0.000000 121.927466
LeftHand -20.128388 -0.000000 30.984836
LeftHandThumb1 -26.253704 0.000000 33.147579
RightShoulder -0.610331 -21.781192 -3.317472
RightArm 9.920253 -0.626110 67.253216
RightForeArm 203.810369 -0.000000 36.081058
RightHand 1.086872 -0.000000 8.713360
RightHandThumb1 -24.326973 -0.000000 -32.862282
LeftUpLeg -10.258708 15.736056 5.414720
LeftLeg 28.750099 -0.000000 -0.000000
LeftFoot -26.406303 18.589741 -5.489271
LeftToeBase 12.923933 -0.000000 -0.000000
RightUpLeg -76.244243 -25.029488 10.946061
RightLeg 113.329702 -0.000000 -0.000000
RightFoot 3.624109 -6.531623 7.679107
RightToeBase 6.240004 -0.000000 -0.000000
2298
root 0.065595 36.634290 -0.584204 0.547030 -17.555913 -11.867011
Spine 10.675298 10.891493 14.424633
Head -5.177554 -14.214488 -1.135441
LeftShoulder -6.855513 -5.178051 1.880251
LeftArm -15.338857 -24.790419 -46.058568
LeftForeArm 15.011344 -0.000000 121.893171
LeftHand -20.084009 -0.000000 30.980308
LeftHandThumb1 -26.253704 0.000000 33.147579
RightShoulder -0.598165 -21.770339 -3.336832
RightArm 9.946544 -0.652080 67.237540
RightForeArm 203.685906 -0.000000 36.103666
RightHand 1.080833 -0.000000 8.773818
RightHandThumb1 -24.326973 -0.000000 -32.862282
LeftUpLeg -10.291698 15.775334 5.335516
LeftLeg 28.715094 -0.000000 -0.000000
LeftFoot -26.394108 18.523898 -5.501955
LeftToeBase 12.922410 -0.000000 -0.000000
RightUpLeg -76.093160 -25.043665 10.865832
RightLeg 114.020538 -0.000000 -0.000000
RightFoot 4.158819 -6.271621 7.639036
RightToeBase 6.443043 -0.000000 -0.000000
2299
root 0.073839 36.633424 -0.589039 0.572416 -17.542897 -11.801045
Spine 10.652918 10.905430 14.438427
Head -5.244335 -14.192321 -1.218893
LeftShoulder -6.829642 -5.197917 1.771674
LeftArm -15.365752 -24.753867 -45.909834
LeftForeArm 14.922323 -0.000000 121.885448
LeftHand -20.126884 -0.000000 31.060790
LeftHandThumb1 -26.253704 0.000000 33.147579
RightShoulder -0.580278 -21.736963 -3.357175
RightArm 9.943127 -0.652770 67.226878
RightForeArm 203.573440 -0.000000 36.128525
RightHand 1.061119 -0.000000 8.808004
RightHandThumb1 -24.326973 -0.000000 -32.862282
LeftUpLeg -10.336573 15.827475 5.251608
LeftLeg 28.683458 -0.000000 -0.000000
LeftFoot -26.358015 18.473762 -5.457817
LeftToeBase 12.886062 -0.000000 -0.000000
RightUpLeg -75.945793 -25.035894 10.768369
RightLeg 114.643632 -0.000000 -0.000000
RightFoot 4.720155 -6.019468 7.709234
RightToeBase 6.255327 -0.000000 -0.000000
2300
root 0.083398 36.632149 -0.592585 0.585678 -17.524730 -11.731317
Spine 10.642137 10.912387 14.451964
Head -5.304465 -14.139825 -1.262619
LeftShoulder -6.836686 -5.164298 1.755003
LeftArm -15.288989 -24.714097 -46.019094
LeftForeArm 14.874342 0.000000 121.869117
LeftHand -20.269981 -0.000000 31.303845
LeftHandThumb1 -26.253704 0.000000 33.147579
RightShoulder -0.575608 -21.738755 -3.378709
RightArm 9.982087 -0.620374 67.223126
RightForeArm 203.551354 -0.000000 36.134540
RightHand 0.961620 -0.000000 8.784986
RightHandThumb1 -24.326973 -0.000000 -32.862282
LeftUpLeg -10.364257 15.834452 5.162475
LeftLeg 28.641265 -0.000000 -0.000000
LeftFoot -26.340805 18.447126 -5.465321
LeftToeBase 12.884287 -0.000000 -0.000000
RightUpLeg -75.811717 -25.068866 10.680487
RightLeg 115.187662 -0.000000 -0.000000
RightFoot 5.332471 -5.857016 7.579501
RightToeBase 6.321313 -0.000000 -0.000000
2301
root 0.092963 36.631280 -0.596244 0.598905 -17.501311 -11.677784
Spine 10.637073 10.918546 14.484848
Head -5.363405 -14.118954 -1.267872
LeftShoulder -6.844374 -5.152687 1.797944
LeftArm -15.258104 -24.680697 -46.229244
LeftForeArm 14.945238 -0.000000 121.808371
LeftHand -20.200451 -0.000000 31.340603
LeftHandThumb1 -26.253704 0.000000 33.147579
RightShoulder -0.582387 -21.741737 -3.391252
RightArm 10.023114 -0.570975 67.192617
RightForeArm 203.195328 -0.000000 36.121575
RightHand 0.925788 -0.000000 8.744544
RightHandThumb1 -24.326973 -0.000000 -32.862282
LeftUpLeg -10.388947 15.851018 5.090724
LeftLeg 28.599137 -0.000000 -0.000000
LeftFoot -26.321320 18.422160 -5.434063
LeftToeBase 12.913975 -0.000000 -0.000000
RightUpLeg -75.675002 -25.111967 10.602814
RightLeg 115.643559 -0.000000 -0.000000
RightFoot 5.908462 -5.736843 7.713100
RightToeBase 6.300569 -0.000000 -0.000000
2302
root 0.103546 36.630456 -0.601419 0.614662 -17.486922 -11.623086
Spine 10.642642 10.922504 14.517470
Head -5.434078 -14.091384 -1.292999
LeftShoulder -6.851708 -5.194693 1.788319
LeftArm -15.270294 -24.614318 -46.303358
LeftForeArm 14.965847 -0.000000 121.754422
LeftHand -20.146783 -0.000000 31.380377
LeftHandThumb1 -26.253704 0.000000 33.147579
RightShoulder -0.578676 -21.679345 -3.413579
RightArm 10.010998 -0.599926 67.177742
RightForeArm 203.445758 0.000000 36.152910
RightHand 0.952563 -0.000000 8.915572
RightHandThumb1 -24.326973 -0.000000 -32.862282
LeftUpLeg -10.417700 15.862152 5.016547
LeftLeg 28.559846 -0.000000 -0.000000
LeftFoot -26.327391 18.368824 -5.492521
LeftToeBase 12.940916 -0.000000 -0.000000
RightUpLeg -75.544381 -25.139970 10.544085
RightLeg 116.013847 -0.000000 -0.000000
RightFoot 6.475965 -5.702085 7.752990
RightToeBase 6.071434 -0.000000 -0.000000
2303
root 0.113208 36.629696 -0.606572 0.628191 -17.481295 -11.582111
Spine 10.657335 10.918048 14.561761
Head -5.498747 -14.063931 -1.304936
LeftShoulder -6.865826 -5.221510 1.767504
LeftArm -15.267098 -24.566188 -46.361729
LeftForeArm 14.965302 -0.000000 121.708449
LeftHand -20.163793 0.000000 31.451969
LeftHandThumb1 -26.253704 0.000000 33.147579
RightShoulder -0.554276 -21.642142 -3.449840
RightArm 10.014947 -0.604277 67.156614
RightForeArm 203.486127 0.000000 36.177349
RightHand 0.964564 0.000000 8.978907
RightHandThumb1 -24.326973 -0.000000 -32.862282
LeftUpLeg -10.444401 15.909313 4.957167
LeftLeg 28.531724 -0.000000 -0.000000
LeftFoot -26.308011 18.317720 -5.505212
LeftToeBase 12.932646 -0.000000 -0.000000
RightUpLeg -75.415030 -25.162747 10.487495
RightLeg 116.321243 -0.000000 -0.000000
RightFoot 6.911497 -5.704480 7.930802
RightToeBase 6.498795 -0.000000 -0.000000
2304
root 0.122903 36.628871 -0.611000 0.631227 -17.471282 -11.543904
Spine 10.676716 10.906144 14.604538
Head -5.546841 -14.061451 -1.296284
LeftShoulder -6.865461 -5.227562 1.760464
LeftArm -15.271054 -24.529040 -46.450942
LeftForeArm 14.995803 -0.000000 121.670087
LeftHand -20.149969 -0.000000 31.518224
LeftHandThumb1 -26.253704 0.000000 33.147579
RightShoulder -0.523477 -21.609367 -3.480412
RightArm 10.016213 -0.573528 67.140251
RightForeArm 203.499653 0.000000 36.184209
RightHand 0.929136 -0.000000 8.949417
RightHandThumb1 -24.326973 -0.000000 -32.862282
LeftUpLeg -10.456470 15.925609 4.904317
LeftLeg 28.498948 -0.000000 -0.000000
LeftFoot -26.299506 18.293978 -5.520761
LeftToeBase 12.920419 -0.000000 -0.000000
RightUpLeg -75.265795 -25.204575 10.415451
RightLeg 116.566877 -0.000000 -0.000000
RightFoot 7.236198 -5.694680 8.028645
RightToeBase 6.434693 -0.000000 -0.000000
2305
root 0.131196 36.627629 -0.614258 0.627131 -17.471726 -11.527457
Spine 10.716956 10.898865 14.675388
Head -5.609890 -14.014914 -1.300289
LeftShoulder -6.871348 -5.241077 1.738400
LeftArm -15.290588 -24.512072 -46.491897
LeftForeArm 15.119275 -0.000000 121.611970
LeftHand -20.085907 -0.000000 31.384209
LeftHandThumb1 -26.253704 0.000000 33.147579
RightShoulder -0.493259 -21.585892 -3.521719
RightArm 10.030280 -0.547330 67.123219
RightForeArm 203.467172 0.000000 36.189595
RightHand 0.853102 -0.000000 8.980470
RightHandThumb1 -24.326973 -0.000000 -32.862282
LeftUpLeg -10.457403 15.965475 4.876184
LeftLeg 28.481326 -0.000000 -0.000000
LeftFoot -26.286950 18.271565 -5.518482
LeftToeBase 12.876500 -0.000000 -0.000000
RightUpLeg -75.120126 -25.245387 10.376090
RightLeg 116.725884 -0.000000 -0.000000
RightFoot 7.544477 -5.745350 8.061788
RightToeBase 6.666708 -0.000000 -0.000000
